<svg xmlns="http://www.w3.org/2000/svg" height="24px" viewBox="0 -960 960 960" width="24px">
	<rect x="0" y="-960" width="960" height="960" rx="180" fill="#000000"/>
	<path fill="#ffffff" d="M240-120q-17 0-28.5-11.5T200-160v-82q-18-20-29-44.5T160-340v-380q0-83 77-121.5T480-880q172 0 246 37t74 123v380q0 29-11 53.5T760-242v82q0 17-11.5 28.5T720-120h-40q-17 0-28.5-11.5T640-160v-40H320v40q0 17-11.5 28.5T280-120h-40Zm242-640h224-448 224Zm158 280H240h480-80Zm-400-80h480v-120H240v120Zm142.5 222.5Q400-355 400-380t-17.5-42.5Q365-440 340-440t-42.5 17.5Q280-405 280-380t17.5 42.5Q315-320 340-320t42.5-17.5Zm280 0Q680-355 680-380t-17.5-42.5Q645-440 620-440t-42.5 17.5Q560-405 560-380t17.5 42.5Q595-320 620-320t42.5-17.5ZM258-760h448q-15-17-64.5-28.5T482-800q-107 0-156.5 12.5T258-760Zm62 480h320q33 0 56.5-23.5T720-360v-120H240v120q0 33 23.5 56.5T320-280Z"/>
</svg>