<svg xmlns="http://www.w3.org/2000/svg" height="24px" viewBox="0 -960 960 960" width="24px">
	<rect x="0" y="-960" width="960" height="960" rx="180" fill="#000000"/>
	<path fill="#ffffff" d="M160-340v-380q0-53 27.5-84.5t72.5-48q45-16.5 102.5-22T480-880q66 0 124.5 5.5t102 22q43.5 16.5 68.5 48t25 84.5v380q0 59-40.5 99.5T660-200l60 60v20h-80l-80-80H400l-80 80h-80v-20l60-60q-59 0-99.5-40.5T160-340Zm320-460q-106 0-155 12.5T258-760h448q-15-17-64.5-28.5T480-800ZM240-560h200v-120H240v120Zm420 80H240h480-60Zm-140-80h200v-120H520v120ZM383-337q17-17 17-43t-17-43q-17-17-43-17t-43 17q-17 17-17 43t17 43q17 17 43 17t43-17Zm280 0q17-17 17-43t-17-43q-17-17-43-17t-43 17q-17 17-17 43t17 43q17 17 43 17t43-17Zm-363 57h360q26 0 43-17t17-43v-140H240v140q0 26 17 43t43 17Zm180-480h226-448 222Z"/>
</svg>