<svg width="512" height="512" viewBox="0 0 512 512" fill="none" xmlns="http://www.w3.org/2000/svg">
<g clip-path="url(#clip0_1_1375)">
<rect x="-2" width="516" height="512" rx="35" fill="url(#paint0_linear_1_1375)"/>
<path d="M328.245 396.261C318.767 396.273 315.937 395.697 300.277 390.559C283.769 385.142 272.925 383.24 264.409 384.267C255.711 385.315 245.875 387.572 234.106 391.221C221.186 395.227 220.696 395.286 204.308 394.794C188.884 394.332 186.631 393.963 173.961 389.826C161.01 385.595 159.444 385.351 144.803 385.27C130.295 385.19 128.336 385.463 113.331 389.669C104.53 392.135 93.4337 394.443 88.6721 394.796C79.0132 395.513 65.1473 393.678 55.423 390.396C51.8908 389.202 49 388.65 49 389.167C49 391.634 59.098 400.919 65.2794 404.137C81.3232 412.489 96.7327 413.831 118.621 408.782C125.821 407.122 134.136 405.453 137.101 405.073C144.913 404.072 157.854 406.19 172.703 410.9C198.897 419.208 212.99 419.068 238.194 410.246C262.684 401.675 273.926 401.732 300.975 410.563C315.521 415.311 316.796 415.525 330.459 415.496C344.461 415.467 345.068 415.355 361.402 409.748C376.716 404.492 378.93 404.035 388.774 404.091C395.932 404.133 402.834 405.026 409.579 406.783C429.488 411.973 449.815 406.585 460.065 393.4L463 389.625L455.045 391.864C442.428 395.415 425.857 394.269 409.006 388.678C390.531 382.549 380.628 382.526 363.187 388.572C343.687 395.331 339.529 396.245 328.245 396.261Z" fill="#5BCCF8"/>
<path d="M325.881 446.562C321.625 445.82 311.077 442.832 302.442 439.922C290.13 435.772 284.606 434.527 276.846 434.155C264.12 433.544 259.154 434.499 239.269 441.382C223.02 447.007 222.8 447.046 208.024 446.997C193.393 446.947 192.862 446.851 176.476 441.268C164.862 437.312 157.221 435.416 151.271 435.013C141.908 434.381 126.985 436.17 117.244 439.092L111 440.964L120.613 443.589C125.901 445.032 137.129 447.088 145.565 448.158C158.871 449.846 162.419 450.789 172.336 455.282C186.913 461.888 200.287 464.652 213.899 463.872C222.13 463.4 227.652 462.079 242.548 457.025C260.18 451.043 261.556 450.763 273.5 450.725C284.406 450.689 287.746 451.204 299.69 454.762C311.507 458.282 315.01 458.831 325.286 458.773C339.535 458.691 348.617 455.746 356.17 448.753L361 444.283L356.238 445.336C347.023 447.374 333.643 447.914 325.881 446.562Z" fill="#5BCCF8"/>
<path fill-rule="evenodd" clip-rule="evenodd" d="M395.621 54.7867C416.52 60.987 431.275 77.1132 435.159 97.9982C438.2 114.355 433.471 126.755 413.092 155.859C405.654 166.482 395.621 180.926 390.798 187.955C385.975 194.983 381.596 200.466 381.069 200.14C380.542 199.815 374.507 191.111 367.658 180.798C360.81 170.486 349.859 154.183 343.323 144.57C334.114 131.025 330.962 125.327 329.32 119.261C322.196 92.9374 339.233 63.1218 366.307 54.5361C373.084 52.387 387.964 52.5135 395.621 54.7867ZM375.249 78.9676C365.983 82.0021 358.781 88.6189 356.045 96.614C353.847 103.031 354.046 114.707 356.428 119.164C364.051 133.427 380.608 137.834 395.725 129.622C418.98 116.987 411.013 80.4938 384.559 78.4712C381.083 78.2062 376.893 78.4294 375.249 78.9676ZM174.015 192.298C176.663 194.785 181.705 208.646 180.427 209.924C179.968 210.385 156.4 216.344 155.04 216.344C154.754 216.344 154.52 210.108 154.52 202.486V188.629L162.813 189.098C169.409 189.47 171.703 190.126 174.015 192.298ZM336.072 195.51C336.467 200.481 336.255 200.983 333.507 201.583C329.733 202.407 318.205 205.301 314.854 206.267C312.789 206.862 312.072 206.284 310.976 203.139C308.546 196.166 309.078 195.087 315.896 193.173C323.212 191.118 326.718 190.477 331.883 190.254C335.511 190.098 335.656 190.278 336.072 195.51ZM362.984 195.611C364.519 197.71 365.168 206.798 363.782 206.798C363.379 206.798 360.426 205.866 357.22 204.727C351.443 202.676 351.393 202.613 351.393 197.411V192.164L356.422 192.839C359.202 193.211 362.137 194.451 362.984 195.611ZM295.314 214.022C295.314 215.762 279.787 230.795 278.69 230.117C278.051 229.722 276.422 227.846 275.072 225.949L272.615 222.499L280.48 214.516L288.346 206.534L291.83 209.872C293.746 211.708 295.314 213.576 295.314 214.022ZM401.614 224.101C403.511 227.382 405.067 230.622 405.074 231.301C405.08 231.98 402.749 233.401 399.894 234.46L394.702 236.384L392.218 231.27C390.852 228.457 388.112 224.308 386.13 222.05L382.526 217.946L386.287 213.384L390.048 208.82L394.107 213.477C396.34 216.039 399.718 220.819 401.614 224.101ZM228.143 218.53C229.589 219.311 232.398 223.355 234.383 227.516L237.995 235.082L247.265 235.858C257.254 236.695 260.743 238.418 264.888 244.565C267.485 248.419 275.712 269.757 274.909 270.56C274.637 270.832 259.653 274.912 241.612 279.626C223.571 284.34 207.792 288.738 206.549 289.397C205.306 290.056 201.154 293.582 197.321 297.231C188.076 306.033 174.212 316.416 168.017 319.175C162.147 321.789 147.504 323.263 116.021 324.41C97.3121 325.091 93.7219 324.956 94.186 323.588C94.4903 322.688 97.2334 312.822 100.281 301.665C103.328 290.507 106.443 280.759 107.202 280.003C107.961 279.246 117.139 277.471 127.597 276.058C138.056 274.644 147.049 273.218 147.583 272.888C148.936 272.052 148.8 261.298 147.391 257.59C145.931 253.751 145.066 253.767 127.947 257.943L113.952 261.358V254.501V247.643L124.05 244.857L134.148 242.07L134.49 232.535L134.833 222.998L154.52 219.737C172.364 216.78 176.609 216.504 199.86 216.794C216.829 217.004 226.403 217.592 228.143 218.53ZM173.766 246.895C167.617 248.407 162.311 249.919 161.976 250.255C161.132 251.099 165.473 267.493 167.145 269.781C168.365 271.45 169.813 271.376 181.497 269.048C193.015 266.755 198.387 266.461 228.795 266.461C249.255 266.462 263.098 266.013 263.098 265.348C263.098 262.988 256.532 249.09 254.79 247.764C252.702 246.173 238.851 245.255 207.019 244.6C187.077 244.188 183.866 244.41 173.766 246.895ZM407.327 255.706C410.032 255.722 410.129 255.995 409.392 261.548C408.968 264.751 407.804 270.121 406.807 273.481C404.879 279.973 403.468 280.729 397.517 278.467C394.614 277.363 394.592 277.252 396.154 271.605C397.028 268.448 398.093 263.263 398.522 260.082C399.223 254.874 399.558 254.367 401.895 254.995C403.322 255.377 405.765 255.698 407.327 255.706ZM347.055 273.709C351.869 277.496 351.165 281.59 343.711 293.144C331.235 312.485 318.771 338.698 310.157 363.716C308.348 368.966 306.467 373.721 305.976 374.284C305.484 374.846 301.67 373.94 297.497 372.27C279.764 365.175 258.537 365.271 237.597 372.539C216.455 379.879 199.066 379.825 174.003 372.346C161.82 368.708 160.026 368.491 142.588 368.526C126.256 368.558 122.71 368.941 112.259 371.797C105.749 373.575 96.2622 375.377 91.1745 375.801C82.0837 376.559 81.8714 376.514 78.7226 373.127C74.0645 368.119 68.7871 357.025 66.1442 346.692C62.764 333.473 62.48 334.037 72.0062 334.976C81.5158 335.913 143.51 333.758 157.503 332.005C172.514 330.123 180.588 325.329 206.203 303.085L212.812 297.346L242.43 289.627C271.53 282.041 326.842 271.49 338.405 271.318C342.261 271.261 344.854 271.977 347.055 273.709ZM393.273 298.241C394.507 299.714 388.374 308.088 380.749 315.343L376.407 319.476L372.658 315.726L368.909 311.977L376.855 303.394C381.225 298.673 384.801 294.309 384.801 293.696C384.801 292.485 391.434 296.043 393.273 298.241ZM125.884 297.488C122.989 300.383 122.706 307.266 125.372 309.933C128.132 312.692 136.215 312.41 137.774 309.5C139.837 305.644 139.168 301.119 136.079 298.031C132.53 294.48 129.075 294.296 125.884 297.488ZM156.708 296.759C154.55 297.829 153.84 299.295 153.552 303.272C153.098 309.552 154.788 311.808 159.95 311.808C165.143 311.808 167.645 309.111 167.645 303.515C167.645 297.097 162.471 293.901 156.708 296.759Z" fill="white"/>
</g>
<defs>
<linearGradient id="paint0_linear_1_1375" x1="256" y1="0" x2="256" y2="512" gradientUnits="userSpaceOnUse">
<stop stop-color="#22A7E8"/>
<stop offset="1" stop-color="#1A92E3"/>
</linearGradient>
<clipPath id="clip0_1_1375">
<rect width="512" height="512" fill="white"/>
</clipPath>
</defs>
</svg>
